<?xml version="1.0" encoding="UTF-8" standalone="no"?>
<!DOCTYPE svg PUBLIC "-//W3C//DTD SVG 1.1//EN" "http://www.w3.org/Graphics/SVG/1.1/DTD/svg11.dtd">
<svg viewBox="0 -20 425 185" version="1.1" xmlns="http://www.w3.org/2000/svg" xmlns:xlink="http://www.w3.org/1999/xlink" xml:space="preserve" xmlns:serif="http://www.serif.com/" style="fill-rule:evenodd;clip-rule:evenodd;stroke-linejoin:round;stroke-miterlimit:2;">
    <g transform="matrix(1,0,0,1,-142.075,-318.5)">
        <g transform="matrix(1,0,0,1,-180.683,52.876)">
            <g id="logo-dark-bg">
                <g id="text" transform="matrix(1,0,0,1,2.63256,0.298304)">
                    <g id="above-ecg" serif:id="above ecg" transform="matrix(1,0,0,1,305.566,282.903)">
                        <g transform="matrix(32,0,0,32,205.069,41.0388)">
                            <path d="M0.152,-0C0.137,-0 0.125,-0.005 0.115,-0.015C0.105,-0.025 0.1,-0.037 0.1,-0.052L0.1,-0.729C0.1,-0.744 0.105,-0.757 0.115,-0.767C0.125,-0.776 0.137,-0.781 0.152,-0.781L0.604,-0.781C0.619,-0.781 0.632,-0.777 0.641,-0.768C0.65,-0.758 0.655,-0.747 0.655,-0.732C0.655,-0.718 0.65,-0.707 0.641,-0.698C0.632,-0.689 0.619,-0.685 0.604,-0.685L0.204,-0.685L0.204,-0.442L0.491,-0.442C0.506,-0.442 0.519,-0.438 0.528,-0.429C0.537,-0.42 0.542,-0.408 0.542,-0.394C0.542,-0.38 0.537,-0.369 0.528,-0.36C0.519,-0.35 0.506,-0.346 0.491,-0.346L0.204,-0.346L0.204,-0.096L0.604,-0.096C0.619,-0.096 0.632,-0.092 0.641,-0.083C0.65,-0.074 0.655,-0.063 0.655,-0.049C0.655,-0.034 0.65,-0.023 0.641,-0.014C0.632,-0.005 0.619,-0 0.604,-0L0.152,-0Z" style="fill:white;fill-rule:nonzero;"/>
                        </g>
                        <g transform="matrix(32,0,0,32,227.469,41.0388)">
                            <path d="M0.265,-0.001C0.243,-0.001 0.227,-0.012 0.217,-0.034L0.015,-0.481C0.01,-0.492 0.01,-0.503 0.014,-0.514C0.018,-0.525 0.026,-0.533 0.039,-0.54C0.05,-0.546 0.062,-0.547 0.075,-0.544C0.087,-0.54 0.095,-0.532 0.1,-0.52L0.288,-0.073L0.24,-0.073L0.426,-0.52C0.432,-0.531 0.441,-0.539 0.454,-0.543C0.466,-0.547 0.478,-0.546 0.491,-0.54C0.503,-0.535 0.511,-0.526 0.515,-0.515C0.519,-0.504 0.518,-0.492 0.513,-0.481L0.311,-0.034C0.301,-0.012 0.286,-0.001 0.265,-0.001Z" style="fill:white;fill-rule:nonzero;"/>
                        </g>
                        <g transform="matrix(32,0,0,32,244.333,41.0388)">
                            <path d="M0.552,0.234C0.537,0.234 0.525,0.229 0.516,0.219C0.506,0.21 0.501,0.198 0.501,0.183L0.501,-0.296C0.501,-0.334 0.494,-0.365 0.48,-0.389C0.466,-0.413 0.447,-0.431 0.424,-0.443C0.4,-0.454 0.373,-0.46 0.342,-0.46C0.314,-0.46 0.289,-0.454 0.266,-0.443C0.243,-0.432 0.225,-0.417 0.212,-0.398C0.199,-0.379 0.192,-0.357 0.192,-0.332L0.129,-0.332C0.129,-0.374 0.139,-0.411 0.16,-0.445C0.18,-0.477 0.208,-0.504 0.243,-0.523C0.278,-0.542 0.318,-0.552 0.362,-0.552C0.408,-0.552 0.449,-0.542 0.486,-0.523C0.522,-0.503 0.551,-0.474 0.572,-0.436C0.593,-0.398 0.603,-0.351 0.603,-0.296L0.603,0.183C0.603,0.198 0.598,0.21 0.589,0.219C0.579,0.229 0.567,0.234 0.552,0.234ZM0.141,0.001C0.126,0.001 0.114,-0.004 0.105,-0.014C0.095,-0.023 0.09,-0.035 0.09,-0.05L0.09,-0.496C0.09,-0.511 0.095,-0.524 0.105,-0.533C0.114,-0.542 0.126,-0.547 0.141,-0.547C0.156,-0.547 0.169,-0.542 0.178,-0.533C0.187,-0.524 0.192,-0.511 0.192,-0.496L0.192,-0.05C0.192,-0.035 0.187,-0.023 0.178,-0.014C0.169,-0.004 0.156,0.001 0.141,0.001Z" style="fill:white;fill-rule:nonzero;"/>
                        </g>
                        <g transform="matrix(32,0,0,32,266.157,41.0388)">
                            <path d="M0.141,0.234C0.126,0.234 0.114,0.229 0.105,0.219C0.095,0.21 0.09,0.198 0.09,0.183L0.09,-0.497C0.09,-0.512 0.095,-0.524 0.105,-0.534C0.114,-0.543 0.126,-0.548 0.141,-0.548C0.156,-0.548 0.168,-0.543 0.178,-0.534C0.187,-0.524 0.192,-0.512 0.192,-0.497L0.192,-0.228C0.192,-0.197 0.199,-0.171 0.214,-0.15C0.228,-0.129 0.246,-0.113 0.269,-0.102C0.292,-0.092 0.315,-0.087 0.34,-0.087C0.372,-0.087 0.399,-0.093 0.422,-0.105C0.445,-0.116 0.462,-0.133 0.473,-0.154C0.485,-0.174 0.491,-0.199 0.491,-0.228L0.491,-0.497C0.491,-0.512 0.496,-0.525 0.505,-0.534C0.515,-0.543 0.527,-0.548 0.542,-0.548C0.557,-0.548 0.57,-0.543 0.579,-0.534C0.588,-0.525 0.593,-0.512 0.593,-0.497L0.593,-0.051C0.593,-0.036 0.588,-0.024 0.579,-0.015C0.57,-0.005 0.557,-0 0.542,-0C0.527,-0 0.515,-0.005 0.505,-0.015C0.496,-0.024 0.491,-0.036 0.491,-0.051L0.491,-0.059C0.472,-0.039 0.45,-0.023 0.426,-0.012C0.401,-0.001 0.374,0.005 0.345,0.005C0.317,0.005 0.29,-0 0.263,-0.01C0.236,-0.02 0.213,-0.036 0.192,-0.059L0.192,0.183C0.192,0.198 0.187,0.21 0.178,0.219C0.169,0.229 0.156,0.234 0.141,0.234Z" style="fill:white;fill-rule:nonzero;"/>
                        </g>
                        <g transform="matrix(32,0,0,32,288.013,41.0388)">
                            <path d="M0.306,0.004C0.252,0.004 0.208,-0.004 0.174,-0.019C0.141,-0.034 0.116,-0.053 0.101,-0.076C0.085,-0.099 0.077,-0.124 0.077,-0.149C0.077,-0.175 0.084,-0.199 0.097,-0.221C0.11,-0.242 0.131,-0.26 0.162,-0.274C0.133,-0.286 0.114,-0.302 0.103,-0.323C0.092,-0.344 0.087,-0.365 0.087,-0.386C0.087,-0.417 0.096,-0.445 0.113,-0.47C0.13,-0.495 0.155,-0.514 0.19,-0.529C0.224,-0.544 0.267,-0.551 0.32,-0.551C0.357,-0.551 0.391,-0.548 0.421,-0.541C0.45,-0.534 0.476,-0.526 0.498,-0.515C0.519,-0.504 0.536,-0.493 0.548,-0.48C0.556,-0.472 0.561,-0.465 0.563,-0.46C0.564,-0.454 0.565,-0.449 0.565,-0.445C0.565,-0.436 0.561,-0.427 0.553,-0.417C0.544,-0.407 0.533,-0.402 0.519,-0.402C0.516,-0.402 0.511,-0.403 0.504,-0.405C0.498,-0.406 0.492,-0.409 0.487,-0.414C0.468,-0.429 0.446,-0.442 0.421,-0.452C0.395,-0.461 0.361,-0.466 0.32,-0.466C0.296,-0.466 0.274,-0.463 0.254,-0.458C0.233,-0.452 0.217,-0.443 0.204,-0.431C0.192,-0.419 0.186,-0.403 0.186,-0.384C0.186,-0.359 0.197,-0.341 0.219,-0.331C0.24,-0.32 0.266,-0.315 0.295,-0.315L0.398,-0.315C0.413,-0.315 0.424,-0.311 0.432,-0.302C0.44,-0.293 0.444,-0.283 0.444,-0.272C0.444,-0.262 0.441,-0.252 0.434,-0.243C0.427,-0.234 0.415,-0.229 0.398,-0.229L0.295,-0.229C0.248,-0.229 0.217,-0.223 0.2,-0.211C0.183,-0.198 0.174,-0.182 0.174,-0.162C0.174,-0.137 0.186,-0.117 0.21,-0.102C0.234,-0.088 0.266,-0.081 0.306,-0.081C0.335,-0.081 0.362,-0.084 0.385,-0.089C0.407,-0.094 0.427,-0.099 0.444,-0.106C0.461,-0.113 0.474,-0.119 0.483,-0.124C0.491,-0.129 0.498,-0.132 0.503,-0.133C0.508,-0.134 0.513,-0.135 0.518,-0.135C0.533,-0.135 0.544,-0.13 0.551,-0.12C0.558,-0.11 0.562,-0.101 0.562,-0.094C0.562,-0.085 0.56,-0.078 0.557,-0.072C0.553,-0.066 0.546,-0.059 0.535,-0.05C0.524,-0.041 0.507,-0.032 0.486,-0.024C0.465,-0.015 0.439,-0.009 0.409,-0.004C0.379,0.001 0.345,0.004 0.306,0.004Z" style="fill:white;fill-rule:nonzero;"/>
                        </g>
                        <g transform="matrix(32,0,0,32,307.597,41.0388)">
                            <path d="M0.141,0.234C0.126,0.234 0.114,0.229 0.105,0.219C0.095,0.21 0.09,0.198 0.09,0.183L0.09,-0.273C0.091,-0.326 0.103,-0.373 0.127,-0.415C0.151,-0.457 0.184,-0.49 0.225,-0.515C0.266,-0.539 0.313,-0.551 0.365,-0.551C0.418,-0.551 0.465,-0.539 0.506,-0.515C0.547,-0.49 0.58,-0.457 0.605,-0.415C0.629,-0.373 0.641,-0.326 0.641,-0.273C0.641,-0.22 0.63,-0.173 0.608,-0.132C0.585,-0.09 0.555,-0.057 0.516,-0.033C0.477,-0.008 0.434,0.004 0.385,0.004C0.346,0.004 0.31,-0.004 0.277,-0.021C0.244,-0.037 0.215,-0.059 0.192,-0.087L0.192,0.183C0.192,0.198 0.187,0.21 0.178,0.219C0.169,0.229 0.156,0.234 0.141,0.234ZM0.365,-0.086C0.399,-0.086 0.429,-0.094 0.456,-0.111C0.483,-0.127 0.504,-0.149 0.52,-0.178C0.535,-0.206 0.543,-0.238 0.543,-0.273C0.543,-0.309 0.535,-0.341 0.52,-0.37C0.504,-0.398 0.483,-0.42 0.456,-0.437C0.429,-0.453 0.399,-0.461 0.365,-0.461C0.332,-0.461 0.302,-0.453 0.275,-0.437C0.248,-0.42 0.226,-0.398 0.211,-0.37C0.196,-0.341 0.188,-0.309 0.188,-0.273C0.188,-0.238 0.196,-0.206 0.211,-0.178C0.226,-0.149 0.248,-0.127 0.275,-0.111C0.302,-0.094 0.332,-0.086 0.365,-0.086Z" style="fill:white;fill-rule:nonzero;"/>
                        </g>
                        <g transform="matrix(32,0,0,32,330.093,41.0388)">
                            <path d="M0.287,0.004C0.246,0.004 0.209,-0.005 0.177,-0.024C0.144,-0.043 0.119,-0.07 0.1,-0.107C0.081,-0.143 0.072,-0.188 0.072,-0.241C0.072,-0.281 0.076,-0.317 0.084,-0.348C0.091,-0.38 0.1,-0.407 0.111,-0.431C0.122,-0.454 0.132,-0.472 0.142,-0.486C0.152,-0.5 0.159,-0.51 0.163,-0.515C0.172,-0.525 0.181,-0.533 0.19,-0.539C0.199,-0.544 0.209,-0.547 0.221,-0.547C0.238,-0.547 0.251,-0.543 0.258,-0.534C0.265,-0.525 0.268,-0.514 0.267,-0.502C0.266,-0.491 0.263,-0.48 0.256,-0.471C0.226,-0.43 0.204,-0.392 0.191,-0.356C0.177,-0.319 0.17,-0.278 0.17,-0.231C0.17,-0.206 0.174,-0.182 0.182,-0.159C0.19,-0.136 0.203,-0.117 0.221,-0.102C0.238,-0.088 0.262,-0.081 0.292,-0.081C0.316,-0.081 0.337,-0.086 0.355,-0.097C0.372,-0.107 0.386,-0.122 0.396,-0.141C0.405,-0.16 0.41,-0.182 0.41,-0.208L0.41,-0.376C0.41,-0.391 0.414,-0.404 0.424,-0.413C0.433,-0.422 0.444,-0.427 0.459,-0.427C0.474,-0.427 0.486,-0.422 0.495,-0.413C0.504,-0.404 0.508,-0.391 0.508,-0.376L0.508,-0.208C0.508,-0.182 0.513,-0.16 0.523,-0.141C0.532,-0.122 0.546,-0.107 0.564,-0.097C0.582,-0.086 0.603,-0.081 0.626,-0.081C0.656,-0.081 0.68,-0.088 0.698,-0.102C0.716,-0.117 0.729,-0.136 0.737,-0.159C0.744,-0.182 0.748,-0.206 0.748,-0.231C0.748,-0.278 0.741,-0.319 0.728,-0.356C0.714,-0.392 0.692,-0.43 0.662,-0.471C0.655,-0.48 0.652,-0.491 0.651,-0.502C0.65,-0.514 0.654,-0.525 0.661,-0.534C0.668,-0.543 0.68,-0.547 0.697,-0.547C0.709,-0.547 0.72,-0.544 0.729,-0.539C0.738,-0.533 0.746,-0.525 0.755,-0.515C0.759,-0.51 0.766,-0.5 0.776,-0.486C0.786,-0.472 0.796,-0.454 0.807,-0.431C0.818,-0.407 0.827,-0.38 0.835,-0.348C0.842,-0.317 0.846,-0.281 0.846,-0.241C0.846,-0.188 0.837,-0.143 0.818,-0.107C0.799,-0.07 0.774,-0.043 0.742,-0.024C0.709,-0.005 0.672,0.004 0.631,0.004C0.599,0.004 0.572,-0 0.55,-0.009C0.528,-0.018 0.51,-0.03 0.496,-0.046C0.481,-0.061 0.469,-0.08 0.459,-0.101C0.449,-0.08 0.437,-0.061 0.423,-0.046C0.408,-0.03 0.39,-0.018 0.369,-0.009C0.347,-0 0.32,0.004 0.287,0.004Z" style="fill:white;fill-rule:nonzero;"/>
                        </g>
                        <g transform="matrix(32,0,0,32,359.469,41.0388)">
                            <path d="M0.39,-0C0.357,-0 0.327,-0.009 0.3,-0.025C0.273,-0.043 0.252,-0.066 0.237,-0.095C0.222,-0.124 0.214,-0.157 0.214,-0.194L0.214,-0.457L0.067,-0.457C0.053,-0.457 0.042,-0.461 0.033,-0.47C0.024,-0.479 0.02,-0.489 0.02,-0.501C0.02,-0.514 0.024,-0.525 0.033,-0.534C0.042,-0.543 0.053,-0.547 0.067,-0.547L0.48,-0.547C0.494,-0.547 0.505,-0.543 0.514,-0.534C0.523,-0.525 0.527,-0.514 0.527,-0.501C0.527,-0.489 0.523,-0.479 0.514,-0.47C0.505,-0.461 0.494,-0.457 0.48,-0.457L0.314,-0.457L0.314,-0.194C0.314,-0.167 0.321,-0.145 0.336,-0.127C0.351,-0.109 0.369,-0.1 0.39,-0.1L0.427,-0.1C0.439,-0.1 0.449,-0.095 0.458,-0.086C0.466,-0.077 0.47,-0.065 0.47,-0.05C0.47,-0.035 0.465,-0.023 0.454,-0.014C0.443,-0.005 0.428,-0 0.411,-0L0.39,-0Z" style="fill:white;fill-rule:nonzero;"/>
                        </g>
                        <g transform="matrix(32,0,0,32,377.453,41.0388)">
                            <path d="M0.255,-0C0.222,-0 0.192,-0.009 0.165,-0.025C0.138,-0.043 0.117,-0.066 0.102,-0.095C0.087,-0.124 0.079,-0.157 0.079,-0.194L0.079,-0.497C0.079,-0.512 0.084,-0.524 0.093,-0.533C0.102,-0.542 0.114,-0.547 0.129,-0.547C0.144,-0.547 0.156,-0.542 0.165,-0.533C0.174,-0.524 0.179,-0.512 0.179,-0.497L0.179,-0.194C0.179,-0.167 0.186,-0.145 0.201,-0.127C0.216,-0.109 0.234,-0.1 0.255,-0.1L0.289,-0.1C0.301,-0.1 0.311,-0.095 0.32,-0.086C0.328,-0.077 0.332,-0.065 0.332,-0.05C0.332,-0.035 0.327,-0.023 0.316,-0.014C0.305,-0.005 0.29,-0 0.273,-0L0.255,-0Z" style="fill:white;fill-rule:nonzero;"/>
                        </g>
                        <g transform="matrix(32,0,0,32,389.453,41.0388)">
                            <path d="M0.186,-0.2L0.124,-0.268L0.431,-0.542C0.441,-0.551 0.452,-0.556 0.465,-0.555C0.477,-0.554 0.487,-0.549 0.496,-0.539C0.505,-0.529 0.51,-0.518 0.509,-0.506C0.508,-0.494 0.503,-0.483 0.493,-0.474L0.186,-0.2ZM0.139,-0C0.124,-0 0.113,-0.005 0.103,-0.014C0.095,-0.023 0.09,-0.034 0.09,-0.049L0.09,-0.498C0.09,-0.513 0.095,-0.525 0.103,-0.534C0.113,-0.543 0.124,-0.547 0.139,-0.547C0.154,-0.547 0.166,-0.543 0.174,-0.534C0.184,-0.525 0.188,-0.513 0.188,-0.498L0.188,-0.049C0.188,-0.034 0.184,-0.023 0.174,-0.014C0.166,-0.005 0.154,-0 0.139,-0ZM0.496,-0.005C0.485,0.004 0.473,0.007 0.461,0.006C0.448,0.005 0.437,-0 0.428,-0.011L0.225,-0.262L0.295,-0.328L0.503,-0.072C0.512,-0.061 0.516,-0.05 0.515,-0.038C0.514,-0.025 0.507,-0.014 0.496,-0.005Z" style="fill:white;fill-rule:nonzero;"/>
                        </g>
                        <g transform="matrix(32,0,0,32,407.661,41.0388)">
                            <path d="M0.327,0.004C0.279,0.004 0.235,-0.008 0.195,-0.031C0.155,-0.054 0.123,-0.087 0.099,-0.129C0.074,-0.17 0.062,-0.218 0.062,-0.273C0.062,-0.324 0.073,-0.37 0.095,-0.412C0.117,-0.454 0.148,-0.488 0.188,-0.513C0.228,-0.538 0.275,-0.551 0.329,-0.551C0.402,-0.551 0.459,-0.531 0.502,-0.49C0.545,-0.449 0.576,-0.389 0.597,-0.31L0.528,-0.267C0.511,-0.322 0.492,-0.363 0.471,-0.391C0.45,-0.418 0.428,-0.437 0.405,-0.447C0.381,-0.457 0.355,-0.462 0.328,-0.462C0.295,-0.462 0.265,-0.454 0.24,-0.437C0.215,-0.42 0.195,-0.397 0.181,-0.369C0.167,-0.34 0.16,-0.309 0.16,-0.274C0.16,-0.239 0.168,-0.207 0.183,-0.178C0.198,-0.149 0.219,-0.127 0.245,-0.111C0.27,-0.094 0.298,-0.086 0.329,-0.086C0.359,-0.086 0.385,-0.093 0.407,-0.106C0.43,-0.119 0.45,-0.138 0.467,-0.161C0.484,-0.184 0.5,-0.211 0.514,-0.241C0.528,-0.271 0.541,-0.302 0.554,-0.335L0.591,-0.222C0.575,-0.191 0.559,-0.161 0.544,-0.134C0.528,-0.107 0.51,-0.083 0.492,-0.062C0.472,-0.041 0.45,-0.025 0.424,-0.014C0.397,-0.002 0.365,0.004 0.327,0.004ZM0.668,0.005C0.643,0.005 0.627,-0.007 0.618,-0.03L0.525,-0.279L0.596,-0.335L0.711,-0.06C0.712,-0.058 0.713,-0.055 0.714,-0.052C0.714,-0.049 0.714,-0.046 0.714,-0.045C0.714,-0.03 0.71,-0.018 0.702,-0.009C0.694,0 0.683,0.005 0.668,0.005ZM0.581,-0.208L0.523,-0.302L0.611,-0.513C0.616,-0.524 0.622,-0.533 0.63,-0.539C0.638,-0.544 0.648,-0.547 0.661,-0.546C0.676,-0.545 0.688,-0.54 0.697,-0.531C0.706,-0.522 0.71,-0.51 0.709,-0.495C0.709,-0.494 0.709,-0.491 0.708,-0.488C0.707,-0.485 0.706,-0.482 0.705,-0.48L0.581,-0.208ZM0.349,-0.633C0.336,-0.633 0.324,-0.637 0.313,-0.646C0.302,-0.655 0.297,-0.666 0.297,-0.681C0.297,-0.686 0.298,-0.69 0.299,-0.694C0.3,-0.698 0.301,-0.703 0.304,-0.71L0.356,-0.821C0.363,-0.835 0.37,-0.845 0.378,-0.851C0.385,-0.856 0.395,-0.859 0.407,-0.859C0.42,-0.859 0.432,-0.855 0.443,-0.846C0.453,-0.837 0.458,-0.825 0.458,-0.81C0.458,-0.807 0.458,-0.803 0.457,-0.799C0.456,-0.795 0.455,-0.791 0.453,-0.786L0.397,-0.667C0.39,-0.653 0.383,-0.644 0.375,-0.64C0.367,-0.635 0.358,-0.633 0.349,-0.633Z" style="fill:white;fill-rule:nonzero;"/>
                        </g>
                    </g>
                    <g id="below-ecg" serif:id="below ecg" transform="matrix(1,0,0,1,0,1)">
                        <g transform="matrix(1,0,0,1,301.702,349.929)">
                            <g transform="matrix(22,0,0,22,205.069,41.0388)">
                                <path d="M0.139,-0C0.128,-0 0.119,-0.004 0.112,-0.012C0.104,-0.019 0.1,-0.028 0.1,-0.039L0.1,-0.742C0.1,-0.753 0.104,-0.762 0.112,-0.77C0.119,-0.777 0.128,-0.781 0.139,-0.781C0.15,-0.781 0.159,-0.777 0.167,-0.77C0.174,-0.762 0.178,-0.753 0.178,-0.742L0.178,-0.402L0.543,-0.767C0.548,-0.772 0.553,-0.776 0.558,-0.778C0.563,-0.78 0.568,-0.781 0.574,-0.781C0.586,-0.781 0.595,-0.777 0.601,-0.77C0.607,-0.763 0.61,-0.754 0.61,-0.744C0.609,-0.733 0.605,-0.723 0.597,-0.714L0.323,-0.44L0.6,-0.062C0.606,-0.053 0.609,-0.044 0.608,-0.035C0.607,-0.025 0.603,-0.017 0.596,-0.01C0.589,-0.003 0.581,-0 0.572,-0C0.557,-0 0.546,-0.006 0.539,-0.017L0.267,-0.385L0.178,-0.295L0.178,-0.039C0.178,-0.028 0.174,-0.019 0.167,-0.012C0.159,-0.004 0.15,-0 0.139,-0Z" style="fill:white;fill-rule:nonzero;"/>
                            </g>
                            <g transform="matrix(22,0,0,22,218.159,41.0388)">
                                <path d="M0.32,0.005C0.272,0.005 0.228,-0.007 0.189,-0.031C0.15,-0.054 0.118,-0.087 0.096,-0.129C0.073,-0.171 0.061,-0.219 0.061,-0.273C0.061,-0.325 0.072,-0.372 0.093,-0.414C0.114,-0.456 0.145,-0.49 0.184,-0.515C0.223,-0.54 0.27,-0.552 0.323,-0.552C0.396,-0.552 0.454,-0.531 0.497,-0.489C0.54,-0.447 0.569,-0.389 0.586,-0.315L0.536,-0.265C0.519,-0.323 0.5,-0.368 0.478,-0.4C0.457,-0.431 0.433,-0.453 0.406,-0.465C0.379,-0.477 0.35,-0.483 0.319,-0.483C0.282,-0.483 0.25,-0.473 0.223,-0.454C0.196,-0.435 0.174,-0.409 0.159,-0.378C0.144,-0.346 0.136,-0.311 0.136,-0.273C0.136,-0.234 0.144,-0.199 0.161,-0.168C0.177,-0.137 0.199,-0.112 0.227,-0.093C0.255,-0.074 0.287,-0.065 0.323,-0.065C0.356,-0.065 0.384,-0.072 0.407,-0.085C0.43,-0.098 0.451,-0.116 0.468,-0.139C0.485,-0.162 0.499,-0.187 0.511,-0.215C0.524,-0.243 0.535,-0.271 0.546,-0.3L0.586,-0.236C0.573,-0.201 0.558,-0.168 0.543,-0.139C0.527,-0.11 0.509,-0.084 0.489,-0.063C0.468,-0.041 0.444,-0.024 0.417,-0.013C0.389,-0.001 0.357,0.005 0.32,0.005ZM0.671,0.004C0.652,0.005 0.64,-0.004 0.633,-0.021L0.534,-0.273L0.591,-0.314L0.703,-0.048C0.704,-0.046 0.705,-0.044 0.705,-0.042L0.705,-0.036C0.705,-0.025 0.702,-0.015 0.696,-0.008C0.69,-0.001 0.682,0.003 0.671,0.004ZM0.585,-0.23L0.534,-0.285L0.619,-0.525C0.622,-0.533 0.626,-0.539 0.632,-0.544C0.638,-0.548 0.646,-0.55 0.655,-0.55C0.666,-0.55 0.675,-0.546 0.682,-0.539C0.689,-0.532 0.692,-0.522 0.692,-0.511C0.692,-0.51 0.692,-0.508 0.692,-0.506C0.691,-0.504 0.691,-0.502 0.69,-0.5L0.585,-0.23Z" style="fill:white;fill-rule:nonzero;"/>
                            </g>
                            <g transform="matrix(22,0,0,22,235.143,41.0388)">
                                <path d="M0.129,0.234C0.117,0.234 0.108,0.23 0.101,0.223C0.094,0.216 0.09,0.207 0.09,0.195L0.09,-0.277C0.091,-0.329 0.103,-0.376 0.128,-0.418C0.152,-0.459 0.185,-0.492 0.227,-0.516C0.268,-0.54 0.315,-0.552 0.367,-0.552C0.42,-0.552 0.468,-0.54 0.51,-0.516C0.552,-0.491 0.585,-0.458 0.61,-0.416C0.634,-0.374 0.646,-0.326 0.646,-0.273C0.646,-0.22 0.634,-0.173 0.611,-0.131C0.587,-0.089 0.555,-0.056 0.514,-0.032C0.473,-0.007 0.427,0.005 0.376,0.005C0.331,0.005 0.291,-0.005 0.255,-0.024C0.218,-0.043 0.189,-0.068 0.167,-0.099L0.167,0.195C0.167,0.207 0.164,0.216 0.157,0.223C0.15,0.23 0.14,0.234 0.129,0.234ZM0.367,-0.065C0.406,-0.065 0.44,-0.074 0.471,-0.092C0.502,-0.11 0.526,-0.135 0.544,-0.167C0.561,-0.198 0.57,-0.234 0.57,-0.273C0.57,-0.313 0.561,-0.349 0.544,-0.38C0.526,-0.411 0.502,-0.436 0.471,-0.455C0.44,-0.473 0.406,-0.482 0.367,-0.482C0.329,-0.482 0.295,-0.473 0.264,-0.455C0.233,-0.436 0.209,-0.411 0.192,-0.38C0.175,-0.349 0.166,-0.313 0.166,-0.273C0.166,-0.234 0.175,-0.198 0.192,-0.167C0.209,-0.135 0.233,-0.11 0.264,-0.092C0.295,-0.074 0.329,-0.065 0.367,-0.065Z" style="fill:white;fill-rule:nonzero;"/>
                            </g>
                            <g transform="matrix(22,0,0,22,250.697,41.0388)">
                                <path d="M0.335,0.005C0.295,0.005 0.258,-0.002 0.225,-0.017C0.192,-0.031 0.163,-0.051 0.138,-0.076C0.113,-0.101 0.094,-0.131 0.081,-0.164C0.068,-0.197 0.061,-0.232 0.061,-0.269C0.061,-0.303 0.067,-0.336 0.079,-0.367C0.09,-0.398 0.107,-0.427 0.13,-0.452C0.152,-0.477 0.179,-0.497 0.212,-0.512C0.245,-0.527 0.282,-0.534 0.323,-0.534L0.123,-0.715C0.119,-0.718 0.116,-0.723 0.115,-0.728C0.113,-0.733 0.112,-0.739 0.112,-0.744C0.112,-0.755 0.116,-0.764 0.123,-0.771C0.13,-0.778 0.14,-0.781 0.151,-0.781L0.539,-0.781C0.55,-0.781 0.559,-0.778 0.566,-0.773C0.573,-0.767 0.577,-0.759 0.577,-0.748C0.577,-0.736 0.573,-0.727 0.566,-0.722C0.558,-0.717 0.549,-0.714 0.538,-0.714L0.239,-0.714L0.483,-0.51C0.53,-0.47 0.563,-0.43 0.582,-0.391C0.601,-0.351 0.61,-0.31 0.61,-0.269C0.61,-0.229 0.603,-0.192 0.588,-0.159C0.573,-0.126 0.553,-0.097 0.528,-0.072C0.502,-0.047 0.472,-0.028 0.44,-0.015C0.406,-0.002 0.372,0.005 0.335,0.005ZM0.335,-0.065C0.372,-0.065 0.406,-0.074 0.436,-0.093C0.466,-0.111 0.49,-0.135 0.508,-0.166C0.526,-0.197 0.535,-0.231 0.535,-0.269C0.535,-0.309 0.526,-0.344 0.508,-0.376C0.49,-0.406 0.466,-0.431 0.436,-0.449C0.405,-0.466 0.372,-0.475 0.335,-0.475C0.298,-0.475 0.264,-0.466 0.234,-0.449C0.204,-0.431 0.18,-0.406 0.163,-0.376C0.145,-0.344 0.136,-0.309 0.136,-0.269C0.136,-0.232 0.145,-0.198 0.163,-0.167C0.18,-0.136 0.204,-0.111 0.234,-0.093C0.264,-0.074 0.298,-0.065 0.335,-0.065Z" style="fill:white;fill-rule:nonzero;"/>
                            </g>
                            <g transform="matrix(22,0,0,22,265.437,41.0388)">
                                <path d="M0.263,-0C0.228,-0 0.196,-0.008 0.169,-0.025C0.141,-0.042 0.119,-0.065 0.103,-0.094C0.088,-0.123 0.08,-0.156 0.08,-0.193L0.08,-0.508C0.08,-0.519 0.084,-0.529 0.091,-0.536C0.098,-0.543 0.107,-0.547 0.118,-0.547C0.129,-0.547 0.139,-0.543 0.146,-0.536C0.153,-0.529 0.157,-0.519 0.157,-0.508L0.157,-0.193C0.157,-0.159 0.167,-0.131 0.187,-0.11C0.207,-0.088 0.233,-0.077 0.264,-0.077L0.291,-0.077C0.301,-0.077 0.31,-0.073 0.317,-0.066C0.324,-0.059 0.327,-0.049 0.327,-0.038C0.327,-0.027 0.323,-0.018 0.315,-0.011C0.307,-0.004 0.297,-0 0.284,-0L0.263,-0Z" style="fill:white;fill-rule:nonzero;"/>
                            </g>
                            <g transform="matrix(22,0,0,22,273.665,41.0388)">
                                <path d="M0.339,0.005C0.286,0.005 0.238,-0.007 0.196,-0.031C0.154,-0.055 0.121,-0.088 0.097,-0.13C0.073,-0.172 0.061,-0.22 0.061,-0.273C0.061,-0.327 0.073,-0.375 0.097,-0.417C0.121,-0.459 0.154,-0.492 0.196,-0.516C0.238,-0.54 0.286,-0.552 0.339,-0.552C0.392,-0.552 0.44,-0.54 0.482,-0.516C0.523,-0.492 0.556,-0.459 0.58,-0.417C0.604,-0.375 0.616,-0.327 0.617,-0.273C0.617,-0.22 0.605,-0.172 0.581,-0.13C0.556,-0.088 0.523,-0.055 0.482,-0.031C0.44,-0.007 0.392,0.005 0.339,0.005ZM0.339,-0.065C0.378,-0.065 0.412,-0.074 0.443,-0.092C0.474,-0.11 0.498,-0.135 0.515,-0.166C0.532,-0.197 0.541,-0.233 0.541,-0.273C0.541,-0.313 0.532,-0.349 0.515,-0.381C0.498,-0.412 0.474,-0.437 0.443,-0.455C0.412,-0.473 0.378,-0.482 0.339,-0.482C0.3,-0.482 0.266,-0.473 0.235,-0.455C0.204,-0.437 0.18,-0.412 0.163,-0.381C0.145,-0.349 0.136,-0.313 0.136,-0.273C0.136,-0.233 0.145,-0.197 0.163,-0.166C0.18,-0.135 0.204,-0.11 0.235,-0.092C0.266,-0.074 0.3,-0.065 0.339,-0.065Z" style="fill:white;fill-rule:nonzero;"/>
                            </g>
                            <g transform="matrix(22,0,0,22,288.559,41.0388)">
                                <path d="M0.473,-0C0.464,-0 0.456,-0.002 0.451,-0.007C0.446,-0.011 0.441,-0.017 0.437,-0.025L0.119,-0.73C0.118,-0.732 0.117,-0.735 0.116,-0.738C0.115,-0.741 0.115,-0.744 0.115,-0.747C0.115,-0.758 0.118,-0.767 0.126,-0.775C0.133,-0.782 0.142,-0.786 0.153,-0.786C0.161,-0.786 0.169,-0.784 0.175,-0.779C0.183,-0.774 0.188,-0.768 0.191,-0.76L0.509,-0.055C0.511,-0.05 0.512,-0.045 0.512,-0.039C0.512,-0.028 0.508,-0.018 0.5,-0.011C0.493,-0.004 0.484,-0 0.473,-0ZM0.052,-0C0.041,-0 0.031,-0.004 0.024,-0.011C0.017,-0.018 0.013,-0.028 0.013,-0.039C0.013,-0.045 0.014,-0.05 0.015,-0.055L0.25,-0.61L0.289,-0.508L0.088,-0.026C0.085,-0.018 0.08,-0.012 0.073,-0.007C0.066,-0.002 0.059,-0 0.052,-0Z" style="fill:white;fill-rule:nonzero;"/>
                            </g>
                            <g transform="matrix(22,0,0,22,300.043,41.0388)">
                                <path d="M0.339,0.005C0.286,0.005 0.238,-0.007 0.196,-0.031C0.154,-0.055 0.121,-0.088 0.097,-0.13C0.073,-0.172 0.061,-0.22 0.061,-0.273C0.061,-0.327 0.073,-0.375 0.097,-0.417C0.121,-0.459 0.154,-0.492 0.196,-0.516C0.238,-0.54 0.286,-0.552 0.339,-0.552C0.392,-0.552 0.44,-0.54 0.482,-0.516C0.523,-0.492 0.556,-0.459 0.58,-0.417C0.604,-0.375 0.616,-0.327 0.617,-0.273C0.617,-0.22 0.605,-0.172 0.581,-0.13C0.556,-0.088 0.523,-0.055 0.482,-0.031C0.44,-0.007 0.392,0.005 0.339,0.005ZM0.339,-0.065C0.378,-0.065 0.412,-0.074 0.443,-0.092C0.474,-0.11 0.498,-0.135 0.515,-0.166C0.532,-0.197 0.541,-0.233 0.541,-0.273C0.541,-0.313 0.532,-0.349 0.515,-0.381C0.498,-0.412 0.474,-0.437 0.443,-0.455C0.412,-0.473 0.378,-0.482 0.339,-0.482C0.3,-0.482 0.266,-0.473 0.235,-0.455C0.204,-0.437 0.18,-0.412 0.163,-0.381C0.145,-0.349 0.136,-0.313 0.136,-0.273C0.136,-0.233 0.145,-0.197 0.163,-0.166C0.18,-0.135 0.204,-0.11 0.235,-0.092C0.266,-0.074 0.3,-0.065 0.339,-0.065Z" style="fill:white;fill-rule:nonzero;"/>
                            </g>
                            <g transform="matrix(22,0,0,22,314.937,41.0388)">
                                <path d="M0.267,-0C0.25,-0 0.238,-0.009 0.231,-0.026L0.019,-0.497C0.015,-0.506 0.015,-0.514 0.018,-0.523C0.021,-0.532 0.028,-0.538 0.038,-0.543C0.047,-0.548 0.056,-0.549 0.065,-0.546C0.074,-0.543 0.08,-0.536 0.085,-0.527L0.288,-0.066L0.247,-0.066L0.447,-0.527C0.451,-0.536 0.458,-0.543 0.468,-0.546C0.477,-0.549 0.487,-0.548 0.496,-0.544C0.505,-0.539 0.512,-0.533 0.515,-0.524C0.518,-0.515 0.518,-0.506 0.514,-0.498L0.305,-0.026C0.297,-0.009 0.284,-0 0.267,-0ZM0.268,0.214C0.256,0.214 0.247,0.21 0.239,0.203C0.233,0.196 0.229,0.187 0.229,0.175L0.229,-0.051C0.229,-0.062 0.233,-0.072 0.239,-0.079C0.247,-0.086 0.256,-0.09 0.268,-0.09C0.279,-0.09 0.289,-0.086 0.296,-0.079C0.303,-0.072 0.306,-0.062 0.306,-0.051L0.306,0.175C0.306,0.187 0.303,0.196 0.296,0.203C0.289,0.21 0.279,0.214 0.268,0.214Z" style="fill:white;fill-rule:nonzero;"/>
                            </g>
                            <g transform="matrix(22,0,0,22,326.663,41.0388)">
                                <path d="M0.263,-0C0.228,-0 0.196,-0.008 0.169,-0.025C0.141,-0.042 0.119,-0.065 0.103,-0.094C0.088,-0.123 0.08,-0.156 0.08,-0.193L0.08,-0.508C0.08,-0.519 0.084,-0.529 0.091,-0.536C0.098,-0.543 0.107,-0.547 0.118,-0.547C0.129,-0.547 0.139,-0.543 0.146,-0.536C0.153,-0.529 0.157,-0.519 0.157,-0.508L0.157,-0.193C0.157,-0.159 0.167,-0.131 0.187,-0.11C0.207,-0.088 0.233,-0.077 0.264,-0.077L0.291,-0.077C0.301,-0.077 0.31,-0.073 0.317,-0.066C0.324,-0.059 0.327,-0.049 0.327,-0.038C0.327,-0.027 0.323,-0.018 0.315,-0.011C0.307,-0.004 0.297,-0 0.284,-0L0.263,-0Z" style="fill:white;fill-rule:nonzero;"/>
                            </g>
                            <g transform="matrix(22,0,0,22,334.891,41.0388)">
                                <path d="M0.153,-0.183L0.106,-0.234L0.448,-0.543C0.456,-0.55 0.464,-0.554 0.473,-0.554C0.482,-0.553 0.49,-0.549 0.497,-0.541C0.504,-0.533 0.508,-0.525 0.507,-0.516C0.507,-0.506 0.503,-0.499 0.495,-0.492L0.153,-0.183ZM0.128,-0C0.117,-0 0.108,-0.004 0.101,-0.011C0.094,-0.018 0.09,-0.027 0.09,-0.038L0.09,-0.509C0.09,-0.52 0.094,-0.53 0.101,-0.537C0.108,-0.544 0.117,-0.547 0.128,-0.547C0.139,-0.547 0.149,-0.544 0.156,-0.537C0.163,-0.53 0.166,-0.52 0.166,-0.509L0.166,-0.038C0.166,-0.027 0.163,-0.018 0.156,-0.011C0.149,-0.004 0.139,-0 0.128,-0ZM0.498,-0.005C0.489,0.002 0.48,0.005 0.471,0.004C0.462,0.003 0.454,-0.001 0.447,-0.01L0.224,-0.284L0.278,-0.332L0.503,-0.055C0.51,-0.047 0.513,-0.039 0.512,-0.029C0.511,-0.021 0.507,-0.012 0.498,-0.005Z" style="fill:white;fill-rule:nonzero;"/>
                            </g>
                            <g transform="matrix(22,0,0,22,346.375,41.0388)">
                                <path d="M0.339,0.005C0.286,0.005 0.238,-0.007 0.196,-0.031C0.154,-0.055 0.121,-0.088 0.097,-0.13C0.073,-0.172 0.061,-0.22 0.061,-0.273C0.061,-0.327 0.073,-0.375 0.097,-0.417C0.121,-0.459 0.154,-0.492 0.196,-0.516C0.238,-0.54 0.286,-0.552 0.339,-0.552C0.392,-0.552 0.44,-0.54 0.482,-0.516C0.523,-0.492 0.556,-0.459 0.58,-0.417C0.604,-0.375 0.616,-0.327 0.617,-0.273C0.617,-0.22 0.605,-0.172 0.581,-0.13C0.556,-0.088 0.523,-0.055 0.482,-0.031C0.44,-0.007 0.392,0.005 0.339,0.005ZM0.339,-0.065C0.378,-0.065 0.412,-0.074 0.443,-0.092C0.474,-0.11 0.498,-0.135 0.515,-0.166C0.532,-0.197 0.541,-0.233 0.541,-0.273C0.541,-0.313 0.532,-0.349 0.515,-0.381C0.498,-0.412 0.474,-0.437 0.443,-0.455C0.412,-0.473 0.378,-0.482 0.339,-0.482C0.3,-0.482 0.266,-0.473 0.235,-0.455C0.204,-0.437 0.18,-0.412 0.163,-0.381C0.145,-0.349 0.136,-0.313 0.136,-0.273C0.136,-0.233 0.145,-0.197 0.163,-0.166C0.18,-0.135 0.204,-0.11 0.235,-0.092C0.266,-0.074 0.3,-0.065 0.339,-0.065ZM0.343,-0.638C0.331,-0.638 0.322,-0.642 0.315,-0.649C0.308,-0.656 0.304,-0.664 0.304,-0.673C0.304,-0.677 0.304,-0.681 0.305,-0.684C0.306,-0.687 0.307,-0.691 0.308,-0.695L0.37,-0.822C0.375,-0.832 0.381,-0.839 0.387,-0.844C0.393,-0.848 0.4,-0.85 0.409,-0.85C0.421,-0.85 0.431,-0.846 0.438,-0.839C0.445,-0.832 0.448,-0.823 0.448,-0.814C0.448,-0.811 0.448,-0.807 0.447,-0.804C0.446,-0.801 0.445,-0.797 0.444,-0.794L0.381,-0.665C0.376,-0.654 0.37,-0.647 0.364,-0.644C0.357,-0.64 0.35,-0.638 0.343,-0.638Z" style="fill:white;fill-rule:nonzero;"/>
                            </g>
                            <g transform="matrix(22,0,0,22,367.715,41.0388)">
                                <path d="M0.327,-0C0.316,-0 0.307,-0.004 0.3,-0.012C0.292,-0.019 0.288,-0.028 0.288,-0.039L0.288,-0.781L0.366,-0.781L0.366,-0.039C0.366,-0.028 0.362,-0.019 0.355,-0.012C0.348,-0.004 0.338,-0 0.327,-0ZM0.051,-0.71C0.04,-0.71 0.032,-0.713 0.025,-0.72C0.018,-0.727 0.015,-0.735 0.015,-0.745C0.015,-0.756 0.018,-0.764 0.025,-0.771C0.032,-0.778 0.04,-0.781 0.051,-0.781L0.604,-0.781C0.615,-0.781 0.623,-0.778 0.63,-0.771C0.637,-0.764 0.64,-0.756 0.64,-0.745C0.64,-0.735 0.637,-0.727 0.63,-0.72C0.623,-0.713 0.615,-0.71 0.604,-0.71L0.051,-0.71Z" style="fill:white;fill-rule:nonzero;"/>
                            </g>
                            <g transform="matrix(22,0,0,22,379.045,41.0388)">
                                <path d="M0.129,0.234C0.117,0.234 0.108,0.23 0.101,0.223C0.094,0.216 0.09,0.207 0.09,0.195L0.09,-0.509C0.09,-0.52 0.094,-0.529 0.101,-0.536C0.108,-0.543 0.118,-0.547 0.129,-0.547C0.14,-0.547 0.149,-0.543 0.156,-0.536C0.163,-0.529 0.167,-0.52 0.167,-0.509L0.167,-0.24C0.167,-0.201 0.175,-0.169 0.19,-0.143C0.205,-0.118 0.226,-0.099 0.252,-0.086C0.277,-0.073 0.306,-0.067 0.338,-0.067C0.37,-0.067 0.399,-0.074 0.425,-0.087C0.451,-0.1 0.472,-0.12 0.487,-0.146C0.502,-0.172 0.51,-0.203 0.51,-0.24L0.51,-0.509C0.51,-0.52 0.514,-0.53 0.521,-0.537C0.528,-0.544 0.537,-0.547 0.549,-0.547C0.56,-0.547 0.57,-0.544 0.577,-0.537C0.584,-0.53 0.587,-0.52 0.587,-0.509L0.587,-0.039C0.587,-0.027 0.584,-0.018 0.577,-0.011C0.57,-0.004 0.56,-0 0.549,-0C0.537,-0 0.528,-0.004 0.521,-0.011C0.514,-0.018 0.51,-0.027 0.51,-0.039L0.51,-0.072C0.489,-0.048 0.464,-0.029 0.434,-0.015C0.404,-0.001 0.373,0.006 0.34,0.006C0.302,0.006 0.269,-0 0.24,-0.013C0.211,-0.026 0.187,-0.045 0.167,-0.071L0.167,0.195C0.167,0.207 0.164,0.216 0.157,0.223C0.15,0.23 0.14,0.234 0.129,0.234Z" style="fill:white;fill-rule:nonzero;"/>
                            </g>
                            <g transform="matrix(22,0,0,22,393.939,41.0388)">
                                <path d="M0.559,0.234C0.548,0.234 0.538,0.23 0.531,0.223C0.524,0.216 0.52,0.206 0.52,0.195L0.52,-0.298C0.52,-0.339 0.512,-0.373 0.497,-0.4C0.481,-0.427 0.46,-0.447 0.433,-0.46C0.406,-0.473 0.375,-0.48 0.341,-0.48C0.308,-0.48 0.279,-0.474 0.253,-0.461C0.226,-0.448 0.205,-0.431 0.19,-0.409C0.175,-0.387 0.167,-0.362 0.167,-0.334L0.112,-0.334C0.113,-0.376 0.125,-0.413 0.146,-0.447C0.167,-0.48 0.196,-0.505 0.231,-0.525C0.266,-0.544 0.306,-0.553 0.349,-0.553C0.396,-0.553 0.439,-0.543 0.476,-0.524C0.513,-0.504 0.543,-0.475 0.565,-0.437C0.586,-0.399 0.597,-0.353 0.597,-0.298L0.597,0.195C0.597,0.206 0.593,0.216 0.586,0.223C0.579,0.23 0.57,0.234 0.559,0.234ZM0.129,-0C0.117,-0 0.108,-0.004 0.101,-0.011C0.094,-0.018 0.09,-0.027 0.09,-0.038L0.09,-0.508C0.09,-0.52 0.094,-0.53 0.101,-0.537C0.108,-0.544 0.117,-0.547 0.129,-0.547C0.14,-0.547 0.15,-0.544 0.157,-0.537C0.164,-0.53 0.167,-0.52 0.167,-0.508L0.167,-0.038C0.167,-0.027 0.164,-0.018 0.157,-0.011C0.15,-0.004 0.14,-0 0.129,-0ZM0.338,-0.638C0.326,-0.638 0.317,-0.642 0.31,-0.649C0.303,-0.656 0.299,-0.664 0.299,-0.673C0.299,-0.677 0.299,-0.681 0.3,-0.684C0.301,-0.687 0.302,-0.691 0.303,-0.695L0.365,-0.822C0.37,-0.832 0.376,-0.839 0.382,-0.844C0.388,-0.848 0.395,-0.85 0.404,-0.85C0.416,-0.85 0.426,-0.846 0.433,-0.839C0.44,-0.832 0.443,-0.823 0.443,-0.814C0.443,-0.811 0.443,-0.807 0.442,-0.804C0.441,-0.801 0.44,-0.797 0.439,-0.794L0.376,-0.665C0.371,-0.654 0.365,-0.647 0.359,-0.644C0.352,-0.64 0.345,-0.638 0.338,-0.638Z" style="fill:white;fill-rule:nonzero;"/>
                            </g>
                            <g transform="matrix(22,0,0,22,408.833,41.0388)">
                                <path d="M0.129,0.234C0.117,0.234 0.108,0.23 0.101,0.223C0.094,0.216 0.09,0.207 0.09,0.195L0.09,-0.509C0.09,-0.52 0.094,-0.529 0.101,-0.536C0.108,-0.543 0.118,-0.547 0.129,-0.547C0.14,-0.547 0.149,-0.543 0.156,-0.536C0.163,-0.529 0.167,-0.52 0.167,-0.509L0.167,-0.24C0.167,-0.201 0.175,-0.169 0.19,-0.143C0.205,-0.118 0.226,-0.099 0.252,-0.086C0.277,-0.073 0.306,-0.067 0.338,-0.067C0.37,-0.067 0.399,-0.074 0.425,-0.087C0.451,-0.1 0.472,-0.12 0.487,-0.146C0.502,-0.172 0.51,-0.203 0.51,-0.24L0.51,-0.509C0.51,-0.52 0.514,-0.53 0.521,-0.537C0.528,-0.544 0.537,-0.547 0.549,-0.547C0.56,-0.547 0.57,-0.544 0.577,-0.537C0.584,-0.53 0.587,-0.52 0.587,-0.509L0.587,-0.039C0.587,-0.027 0.584,-0.018 0.577,-0.011C0.57,-0.004 0.56,-0 0.549,-0C0.537,-0 0.528,-0.004 0.521,-0.011C0.514,-0.018 0.51,-0.027 0.51,-0.039L0.51,-0.072C0.489,-0.048 0.464,-0.029 0.434,-0.015C0.404,-0.001 0.373,0.006 0.34,0.006C0.302,0.006 0.269,-0 0.24,-0.013C0.211,-0.026 0.187,-0.045 0.167,-0.071L0.167,0.195C0.167,0.207 0.164,0.216 0.157,0.223C0.15,0.23 0.14,0.234 0.129,0.234Z" style="fill:white;fill-rule:nonzero;"/>
                            </g>
                            <g transform="matrix(22,0,0,22,423.727,41.0388)">
                                <path d="M0.32,0.005C0.272,0.005 0.228,-0.007 0.189,-0.031C0.15,-0.054 0.118,-0.087 0.096,-0.129C0.073,-0.171 0.061,-0.219 0.061,-0.273C0.061,-0.325 0.072,-0.372 0.093,-0.414C0.114,-0.456 0.145,-0.49 0.184,-0.515C0.223,-0.54 0.27,-0.552 0.323,-0.552C0.396,-0.552 0.454,-0.531 0.497,-0.489C0.54,-0.447 0.569,-0.389 0.586,-0.315L0.536,-0.265C0.519,-0.323 0.5,-0.368 0.478,-0.4C0.457,-0.431 0.433,-0.453 0.406,-0.465C0.379,-0.477 0.35,-0.483 0.319,-0.483C0.282,-0.483 0.25,-0.473 0.223,-0.454C0.196,-0.435 0.174,-0.409 0.159,-0.378C0.144,-0.346 0.136,-0.311 0.136,-0.273C0.136,-0.234 0.144,-0.199 0.161,-0.168C0.177,-0.137 0.199,-0.112 0.227,-0.093C0.255,-0.074 0.287,-0.065 0.323,-0.065C0.356,-0.065 0.384,-0.072 0.407,-0.085C0.43,-0.098 0.451,-0.116 0.468,-0.139C0.485,-0.162 0.499,-0.187 0.511,-0.215C0.524,-0.243 0.535,-0.271 0.546,-0.3L0.586,-0.236C0.573,-0.201 0.558,-0.168 0.543,-0.139C0.527,-0.11 0.509,-0.084 0.489,-0.063C0.468,-0.041 0.444,-0.024 0.417,-0.013C0.389,-0.001 0.357,0.005 0.32,0.005ZM0.671,0.004C0.652,0.005 0.64,-0.004 0.633,-0.021L0.534,-0.273L0.591,-0.314L0.703,-0.048C0.704,-0.046 0.705,-0.044 0.705,-0.042L0.705,-0.036C0.705,-0.025 0.702,-0.015 0.696,-0.008C0.69,-0.001 0.682,0.003 0.671,0.004ZM0.585,-0.23L0.534,-0.285L0.619,-0.525C0.622,-0.533 0.626,-0.539 0.632,-0.544C0.638,-0.548 0.646,-0.55 0.655,-0.55C0.666,-0.55 0.675,-0.546 0.682,-0.539C0.689,-0.532 0.692,-0.522 0.692,-0.511C0.692,-0.51 0.692,-0.508 0.692,-0.506C0.691,-0.504 0.691,-0.502 0.69,-0.5L0.585,-0.23Z" style="fill:white;fill-rule:nonzero;"/>
                            </g>
                        </g>
                        <g transform="matrix(1,0,0,1,303.066,383.902)">
                            <g transform="matrix(22,0,0,22,205.069,41.0388)">
                                <path d="M0.077,-0C0.066,-0 0.057,-0.004 0.05,-0.012C0.042,-0.019 0.038,-0.028 0.038,-0.039L0.038,-0.742C0.038,-0.753 0.042,-0.763 0.049,-0.77C0.056,-0.777 0.066,-0.781 0.077,-0.781L0.536,-0.781C0.547,-0.781 0.557,-0.778 0.564,-0.771C0.571,-0.763 0.575,-0.754 0.575,-0.743C0.575,-0.733 0.571,-0.724 0.564,-0.717C0.557,-0.71 0.547,-0.706 0.536,-0.706L0.116,-0.706L0.116,-0.039C0.116,-0.028 0.112,-0.019 0.105,-0.012C0.098,-0.004 0.088,-0 0.077,-0Z" style="fill:white;fill-rule:nonzero;"/>
                            </g>
                            <g transform="matrix(22,0,0,22,213.759,41.0388)">
                                <path d="M0.108,0.016C0.092,0.016 0.078,0.01 0.067,-0.001C0.056,-0.012 0.05,-0.026 0.05,-0.042C0.05,-0.059 0.056,-0.073 0.068,-0.084C0.079,-0.095 0.093,-0.101 0.108,-0.101C0.124,-0.101 0.138,-0.095 0.149,-0.084C0.16,-0.072 0.166,-0.058 0.166,-0.042C0.166,-0.027 0.161,-0.013 0.15,-0.002C0.139,0.01 0.125,0.016 0.108,0.016Z" style="fill:white;fill-rule:nonzero;"/>
                            </g>
                            <g transform="matrix(22,0,0,22,218.511,41.0388)">
                                <path d="M0.139,-0C0.128,-0 0.118,-0.004 0.111,-0.011C0.104,-0.018 0.1,-0.028 0.1,-0.039L0.1,-0.742C0.1,-0.753 0.104,-0.763 0.111,-0.77C0.118,-0.777 0.128,-0.781 0.139,-0.781C0.151,-0.781 0.161,-0.776 0.169,-0.767L0.647,-0.139L0.647,-0.742C0.647,-0.753 0.651,-0.763 0.658,-0.77C0.665,-0.777 0.675,-0.781 0.686,-0.781C0.697,-0.781 0.706,-0.777 0.714,-0.77C0.721,-0.763 0.725,-0.753 0.725,-0.742L0.725,-0.039C0.725,-0.028 0.721,-0.018 0.714,-0.011C0.706,-0.004 0.697,-0 0.686,-0C0.681,-0 0.675,-0.001 0.67,-0.003C0.665,-0.005 0.66,-0.008 0.657,-0.013L0.178,-0.641L0.178,-0.039C0.178,-0.028 0.174,-0.018 0.167,-0.011C0.159,-0.004 0.15,-0 0.139,-0Z" style="fill:white;fill-rule:nonzero;"/>
                            </g>
                            <g transform="matrix(22,0,0,22,236.661,41.0388)">
                                <path d="M0.108,0.016C0.092,0.016 0.078,0.01 0.067,-0.001C0.056,-0.012 0.05,-0.026 0.05,-0.042C0.05,-0.059 0.056,-0.073 0.068,-0.084C0.079,-0.095 0.093,-0.101 0.108,-0.101C0.124,-0.101 0.138,-0.095 0.149,-0.084C0.16,-0.072 0.166,-0.058 0.166,-0.042C0.166,-0.027 0.161,-0.013 0.15,-0.002C0.139,0.01 0.125,0.016 0.108,0.016Z" style="fill:white;fill-rule:nonzero;"/>
                            </g>
                            <g transform="matrix(22,0,0,22,247.859,41.0388)">
                                <path d="M0.327,-0C0.316,-0 0.307,-0.004 0.3,-0.012C0.292,-0.019 0.288,-0.028 0.288,-0.039L0.288,-0.781L0.366,-0.781L0.366,-0.039C0.366,-0.028 0.362,-0.019 0.355,-0.012C0.348,-0.004 0.338,-0 0.327,-0ZM0.051,-0.71C0.04,-0.71 0.032,-0.713 0.025,-0.72C0.018,-0.727 0.015,-0.735 0.015,-0.745C0.015,-0.756 0.018,-0.764 0.025,-0.771C0.032,-0.778 0.04,-0.781 0.051,-0.781L0.604,-0.781C0.615,-0.781 0.623,-0.778 0.63,-0.771C0.637,-0.764 0.64,-0.756 0.64,-0.745C0.64,-0.735 0.637,-0.727 0.63,-0.72C0.623,-0.713 0.615,-0.71 0.604,-0.71L0.051,-0.71Z" style="fill:white;fill-rule:nonzero;"/>
                            </g>
                            <g transform="matrix(22,0,0,22,262.269,41.0388)">
                                <path d="M0.34,0.233C0.325,0.234 0.313,0.232 0.305,0.225C0.297,0.218 0.293,0.209 0.293,0.197C0.293,0.186 0.297,0.177 0.304,0.171C0.311,0.165 0.321,0.161 0.333,0.16C0.36,0.159 0.381,0.151 0.397,0.136C0.412,0.121 0.42,0.103 0.42,0.08C0.42,0.058 0.413,0.04 0.399,0.025C0.384,0.01 0.359,0.003 0.324,0.002C0.236,0.001 0.169,-0.02 0.122,-0.061C0.075,-0.102 0.051,-0.158 0.051,-0.228C0.051,-0.275 0.06,-0.319 0.079,-0.362C0.097,-0.404 0.121,-0.444 0.151,-0.481C0.18,-0.518 0.212,-0.551 0.246,-0.582L0.384,-0.71L0.097,-0.71C0.086,-0.71 0.077,-0.713 0.07,-0.72C0.063,-0.726 0.059,-0.735 0.059,-0.746C0.059,-0.757 0.063,-0.765 0.07,-0.772C0.077,-0.778 0.086,-0.781 0.097,-0.781L0.47,-0.781C0.483,-0.781 0.492,-0.778 0.499,-0.772C0.505,-0.766 0.508,-0.758 0.508,-0.748C0.508,-0.741 0.506,-0.734 0.503,-0.729C0.5,-0.724 0.494,-0.717 0.486,-0.71L0.314,-0.555C0.275,-0.52 0.242,-0.485 0.214,-0.45C0.186,-0.415 0.165,-0.38 0.15,-0.344C0.135,-0.309 0.127,-0.272 0.126,-0.235C0.126,-0.197 0.134,-0.166 0.151,-0.141C0.168,-0.116 0.191,-0.098 0.222,-0.086C0.252,-0.074 0.288,-0.068 0.331,-0.067C0.369,-0.066 0.4,-0.059 0.424,-0.047C0.448,-0.034 0.466,-0.016 0.477,0.005C0.489,0.026 0.495,0.05 0.495,0.077C0.495,0.105 0.488,0.13 0.475,0.153C0.462,0.176 0.443,0.195 0.42,0.209C0.397,0.224 0.37,0.232 0.34,0.233Z" style="fill:white;fill-rule:nonzero;"/>
                            </g>
                            <g transform="matrix(22,0,0,22,273.885,41.0388)">
                                <path d="M0.32,0.005C0.272,0.005 0.228,-0.007 0.189,-0.031C0.15,-0.054 0.118,-0.087 0.096,-0.129C0.073,-0.171 0.061,-0.219 0.061,-0.273C0.061,-0.325 0.072,-0.372 0.093,-0.414C0.114,-0.456 0.145,-0.49 0.184,-0.515C0.223,-0.54 0.27,-0.552 0.323,-0.552C0.396,-0.552 0.454,-0.531 0.497,-0.489C0.54,-0.447 0.569,-0.389 0.586,-0.315L0.536,-0.265C0.519,-0.323 0.5,-0.368 0.478,-0.4C0.457,-0.431 0.433,-0.453 0.406,-0.465C0.379,-0.477 0.35,-0.483 0.319,-0.483C0.282,-0.483 0.25,-0.473 0.223,-0.454C0.196,-0.435 0.174,-0.409 0.159,-0.378C0.144,-0.346 0.136,-0.311 0.136,-0.273C0.136,-0.234 0.144,-0.199 0.161,-0.168C0.177,-0.137 0.199,-0.112 0.227,-0.093C0.255,-0.074 0.287,-0.065 0.323,-0.065C0.356,-0.065 0.384,-0.072 0.407,-0.085C0.43,-0.098 0.451,-0.116 0.468,-0.139C0.485,-0.162 0.499,-0.187 0.511,-0.215C0.524,-0.243 0.535,-0.271 0.546,-0.3L0.586,-0.236C0.573,-0.201 0.558,-0.168 0.543,-0.139C0.527,-0.11 0.509,-0.084 0.489,-0.063C0.468,-0.041 0.444,-0.024 0.417,-0.013C0.389,-0.001 0.357,0.005 0.32,0.005ZM0.671,0.004C0.652,0.005 0.64,-0.004 0.633,-0.021L0.534,-0.273L0.591,-0.314L0.703,-0.048C0.704,-0.046 0.705,-0.044 0.705,-0.042L0.705,-0.036C0.705,-0.025 0.702,-0.015 0.696,-0.008C0.69,-0.001 0.682,0.003 0.671,0.004ZM0.585,-0.23L0.534,-0.285L0.619,-0.525C0.622,-0.533 0.626,-0.539 0.632,-0.544C0.638,-0.548 0.646,-0.55 0.655,-0.55C0.666,-0.55 0.675,-0.546 0.682,-0.539C0.689,-0.532 0.692,-0.522 0.692,-0.511C0.692,-0.51 0.692,-0.508 0.692,-0.506C0.691,-0.504 0.691,-0.502 0.69,-0.5L0.585,-0.23ZM0.335,-0.64C0.323,-0.64 0.314,-0.644 0.307,-0.651C0.3,-0.658 0.296,-0.666 0.296,-0.675C0.296,-0.679 0.296,-0.683 0.297,-0.686C0.298,-0.689 0.299,-0.693 0.3,-0.697L0.362,-0.824C0.367,-0.834 0.373,-0.841 0.379,-0.846C0.385,-0.85 0.392,-0.852 0.401,-0.852C0.413,-0.852 0.423,-0.848 0.43,-0.841C0.437,-0.834 0.44,-0.825 0.44,-0.816C0.44,-0.813 0.44,-0.809 0.439,-0.806C0.438,-0.803 0.437,-0.799 0.436,-0.796L0.373,-0.667C0.368,-0.656 0.362,-0.649 0.356,-0.646C0.349,-0.642 0.342,-0.64 0.335,-0.64Z" style="fill:white;fill-rule:nonzero;"/>
                            </g>
                            <g transform="matrix(22,0,0,22,290.869,41.0388)">
                                <path d="M0.267,-0C0.25,-0 0.238,-0.009 0.231,-0.026L0.019,-0.497C0.015,-0.506 0.015,-0.514 0.018,-0.523C0.021,-0.532 0.028,-0.538 0.038,-0.543C0.047,-0.548 0.056,-0.549 0.065,-0.546C0.074,-0.543 0.08,-0.536 0.085,-0.527L0.288,-0.052L0.247,-0.052L0.447,-0.527C0.451,-0.536 0.458,-0.543 0.468,-0.546C0.477,-0.549 0.487,-0.548 0.496,-0.544C0.505,-0.539 0.512,-0.533 0.515,-0.524C0.518,-0.515 0.518,-0.506 0.514,-0.498L0.305,-0.026C0.297,-0.009 0.284,-0 0.267,-0Z" style="fill:white;fill-rule:nonzero;"/>
                            </g>
                            <g transform="matrix(22,0,0,22,302.595,41.0388)">
                                <path d="M0.307,0.005C0.25,0.005 0.204,-0.003 0.17,-0.018C0.135,-0.033 0.111,-0.052 0.096,-0.076C0.081,-0.099 0.073,-0.124 0.073,-0.149C0.073,-0.175 0.08,-0.199 0.093,-0.221C0.106,-0.243 0.13,-0.261 0.163,-0.275C0.136,-0.287 0.115,-0.302 0.102,-0.32C0.089,-0.338 0.082,-0.361 0.082,-0.39C0.082,-0.419 0.09,-0.445 0.107,-0.47C0.123,-0.495 0.148,-0.515 0.182,-0.53C0.216,-0.545 0.259,-0.552 0.312,-0.552C0.351,-0.552 0.386,-0.548 0.416,-0.541C0.445,-0.533 0.47,-0.523 0.492,-0.511C0.513,-0.499 0.53,-0.487 0.543,-0.475C0.548,-0.47 0.552,-0.465 0.555,-0.46C0.557,-0.455 0.558,-0.45 0.558,-0.446C0.558,-0.437 0.555,-0.43 0.548,-0.423C0.541,-0.416 0.532,-0.412 0.523,-0.412C0.518,-0.412 0.514,-0.413 0.508,-0.415C0.503,-0.417 0.499,-0.42 0.494,-0.424C0.474,-0.44 0.449,-0.454 0.42,-0.467C0.391,-0.479 0.355,-0.485 0.312,-0.485C0.277,-0.485 0.249,-0.481 0.226,-0.472C0.203,-0.464 0.187,-0.453 0.175,-0.439C0.165,-0.424 0.159,-0.408 0.159,-0.389C0.159,-0.36 0.17,-0.34 0.193,-0.327C0.215,-0.314 0.242,-0.308 0.274,-0.308L0.404,-0.308C0.415,-0.308 0.423,-0.305 0.43,-0.299C0.437,-0.292 0.44,-0.284 0.44,-0.274C0.44,-0.265 0.437,-0.258 0.431,-0.251C0.425,-0.244 0.416,-0.241 0.405,-0.241L0.268,-0.241C0.223,-0.241 0.192,-0.233 0.174,-0.216C0.156,-0.199 0.147,-0.18 0.147,-0.158C0.147,-0.126 0.16,-0.102 0.187,-0.086C0.214,-0.07 0.254,-0.062 0.307,-0.062C0.327,-0.062 0.348,-0.064 0.371,-0.068C0.394,-0.071 0.415,-0.076 0.436,-0.083C0.457,-0.089 0.473,-0.096 0.486,-0.103C0.493,-0.108 0.499,-0.111 0.504,-0.113C0.509,-0.115 0.513,-0.116 0.517,-0.116C0.528,-0.116 0.536,-0.112 0.542,-0.105C0.548,-0.098 0.551,-0.09 0.551,-0.082C0.551,-0.076 0.55,-0.071 0.547,-0.067C0.544,-0.062 0.54,-0.057 0.533,-0.052C0.522,-0.042 0.504,-0.033 0.482,-0.024C0.459,-0.015 0.432,-0.008 0.402,-0.003C0.372,0.002 0.34,0.005 0.307,0.005Z" style="fill:white;fill-rule:nonzero;"/>
                            </g>
                            <g transform="matrix(22,0,0,22,315.949,41.0388)">
                                <path d="M0.263,-0C0.228,-0 0.196,-0.008 0.169,-0.025C0.141,-0.042 0.119,-0.065 0.103,-0.094C0.088,-0.123 0.08,-0.156 0.08,-0.193L0.08,-0.508C0.08,-0.519 0.084,-0.529 0.091,-0.536C0.098,-0.543 0.107,-0.547 0.118,-0.547C0.129,-0.547 0.139,-0.543 0.146,-0.536C0.153,-0.529 0.157,-0.519 0.157,-0.508L0.157,-0.193C0.157,-0.159 0.167,-0.131 0.187,-0.11C0.207,-0.088 0.233,-0.077 0.264,-0.077L0.291,-0.077C0.301,-0.077 0.31,-0.073 0.317,-0.066C0.324,-0.059 0.327,-0.049 0.327,-0.038C0.327,-0.027 0.323,-0.018 0.315,-0.011C0.307,-0.004 0.297,-0 0.284,-0L0.263,-0Z" style="fill:white;fill-rule:nonzero;"/>
                            </g>
                            <g transform="matrix(22,0,0,22,324.177,41.0388)">
                                <path d="M0.339,0.005C0.286,0.005 0.238,-0.007 0.196,-0.031C0.154,-0.055 0.121,-0.088 0.097,-0.13C0.073,-0.172 0.061,-0.22 0.061,-0.273C0.061,-0.327 0.073,-0.375 0.097,-0.417C0.121,-0.459 0.154,-0.492 0.196,-0.516C0.238,-0.54 0.286,-0.552 0.339,-0.552C0.392,-0.552 0.44,-0.54 0.482,-0.516C0.523,-0.492 0.556,-0.459 0.58,-0.417C0.604,-0.375 0.616,-0.327 0.617,-0.273C0.617,-0.22 0.605,-0.172 0.581,-0.13C0.556,-0.088 0.523,-0.055 0.482,-0.031C0.44,-0.007 0.392,0.005 0.339,0.005ZM0.339,-0.065C0.378,-0.065 0.412,-0.074 0.443,-0.092C0.474,-0.11 0.498,-0.135 0.515,-0.166C0.532,-0.197 0.541,-0.233 0.541,-0.273C0.541,-0.313 0.532,-0.349 0.515,-0.381C0.498,-0.412 0.474,-0.437 0.443,-0.455C0.412,-0.473 0.378,-0.482 0.339,-0.482C0.3,-0.482 0.266,-0.473 0.235,-0.455C0.204,-0.437 0.18,-0.412 0.163,-0.381C0.145,-0.349 0.136,-0.313 0.136,-0.273C0.136,-0.233 0.145,-0.197 0.163,-0.166C0.18,-0.135 0.204,-0.11 0.235,-0.092C0.266,-0.074 0.3,-0.065 0.339,-0.065Z" style="fill:white;fill-rule:nonzero;"/>
                            </g>
                        </g>
                    </g>
                </g>
                <g id="heart-and-ecg" serif:id="heart and ecg">
                    <g id="heart">
                        <g id="left-heart-part" serif:id="left heart part" transform="matrix(1.25,0,0,-1.25,411.249,282.904)">
                            <path d="M0,0C-18.932,19.326 -62.024,20.628 -69.878,-10.553C-72.116,-19.438 -69.852,-28.527 -67.319,-37.07C-63.988,-48.303 -59.108,-59.074 -53.277,-69.217C-41.316,-90.024 -24.431,-107.694 -5.279,-122.004C-2.693,-123.936 -0.205,-119.592 -2.755,-117.686C-19.627,-105.08 -34.309,-89.766 -45.71,-72.033C-51.523,-62.993 -56.281,-53.294 -60.007,-43.22C-63.174,-34.657 -66.201,-25.407 -65.705,-16.174C-64.967,-2.404 -53.645,6.202 -40.94,8.518C-27.541,10.96 -13.001,6.127 -3.536,-3.536C-1.276,-5.842 2.257,-2.304 0,0" style="fill:rgb(236,28,36);fill-rule:nonzero;"/>
                        </g>
                        <g id="right-heart-part" serif:id="right heart part" transform="matrix(1,0,0,1,322.758,265.624)">
                            <path d="M167.785,81.222C171.002,73.775 173.347,66.698 174.566,58.762C177.585,39.101 170.258,13.346 147.501,10.193C137.66,8.83 126.846,10.586 117.383,13.325C108.675,15.845 98.583,19.522 93.975,27.941C92.04,31.477 86.642,28.323 88.578,24.786C93.413,15.955 103.323,11.113 112.584,8.238C122.732,5.088 134.484,2.642 145.181,3.683C167.846,5.891 181.123,25.532 181.553,47.449C181.796,59.831 178.939,71.394 174.049,82.88C171.979,82.513 169.74,81.915 167.785,81.222ZM172.015,87.663C167.43,97.629 161.812,106.384 155.993,115.182C142.104,136.181 125.831,155.35 110.843,175.536C108.47,178.733 103.041,175.622 105.447,172.382C118.548,154.735 132.77,137.94 145.292,119.858C152.766,109.07 160.074,98.066 165.806,85.781C167.746,86.499 169.962,87.218 172.015,87.663Z" style="fill:rgb(236,28,36);fill-rule:nonzero;"/>
                        </g>
                    </g>
                    <g id="ecg" transform="matrix(1.25,0,0,-1.25,0,700)">
                        <path d="M277.131,279.374C281.047,278.379 285.566,277.43 289.514,278.708C293.712,280.067 293.892,284.767 299.378,283.849C302.968,283.248 305.971,279.263 309.21,277.693C312.054,276.314 315.234,276.594 318.061,277.813C324.079,280.409 326.02,289.366 327.302,294.753C329.18,302.637 329.704,310.746 331.478,318.642L328.45,318.642C332.801,291.171 329.221,263.204 333.701,235.742C333.953,234.193 336.319,234.429 336.728,235.742C340.375,247.42 342.098,259.035 342.01,271.201C341.995,273.257 342.39,277.617 345.331,277.745C347.016,277.819 348.65,277.329 350.377,277.457C354.205,277.741 357.399,279.851 360.064,282.314C363.076,285.097 365.442,288.696 369.683,289.846C374.95,291.274 380.413,286.214 384.017,283.31C392.59,276.404 404.746,276.803 415.397,276.339C429.541,275.721 443.725,276.305 457.866,276.693C473.001,277.109 488.096,276.879 503.23,276.59C518.966,276.288 534.704,276.012 550.444,276.025C565.822,276.037 581.175,276.869 596.541,276.339C598.567,276.269 598.559,279.269 596.541,279.339C581.177,279.869 565.82,279.064 550.444,279.025C534.02,278.983 517.597,279.315 501.178,279.629C485.431,279.93 469.744,280.026 453.998,279.586C438.628,279.156 423.243,278.712 407.888,279.755C400.978,280.225 393.601,280.403 387.749,284.293C383.996,286.787 381.069,290.157 376.695,291.775C367.493,295.178 363.124,289.314 357.079,283.729C353.18,280.125 349.48,280.926 344.705,280.718C341.817,280.592 339.792,277.244 339.154,274.928C337.887,270.318 338.969,264.51 338.579,259.756C337.93,251.86 336.064,244.112 333.701,236.539L336.728,236.539C332.251,263.991 335.83,291.962 331.478,319.44C331.243,320.922 328.763,320.831 328.45,319.44C326.942,312.732 326.306,305.861 325.027,299.111C323.895,293.139 322.515,283.788 316.475,280.404C309.999,276.775 304.445,286.892 297.973,286.954C295.237,286.981 293.145,286.168 291.364,284.203C287.647,280.102 283.092,280.965 277.967,282.267C276.007,282.765 275.176,279.871 277.131,279.374" style="fill:rgb(41,171,226);fill-rule:nonzero;"/>
                    </g>
                </g>
            </g>
        </g>
    </g>
</svg>
